<svg xmlns="http://www.w3.org/2000/svg" viewBox="0 0 1200 750" width="1200" height="750">
  <defs>
    <linearGradient id="sidebarBg" x1="0%" y1="0%" x2="0%" y2="100%">
      <stop offset="0%" stop-color="#F5F5F5"/>
      <stop offset="100%" stop-color="#EEEEEE"/>
    </linearGradient>
  </defs>

  <!-- Window chrome -->
  <rect width="1200" height="750" fill="#FFFFFF" rx="10"/>
  <rect width="1200" height="38" fill="#263238" rx="10"/>
  <rect y="28" width="1200" height="10" fill="#263238"/>
  <!-- Traffic lights -->
  <circle cx="18" cy="19" r="7" fill="#FF5F57"/>
  <circle cx="38" cy="19" r="7" fill="#FEBC2E"/>
  <circle cx="58" cy="19" r="7" fill="#28C840"/>
  <!-- URL bar -->
  <rect x="80" y="8" width="600" height="22" rx="4" fill="#37474F"/>
  <text x="380" y="23" font-family="monospace" font-size="11" fill="#90A4AE" text-anchor="middle">localhost:8501</text>

  <!-- Sidebar -->
  <rect x="0" y="38" width="260" height="712" fill="url(#sidebarBg)"/>
  <rect x="0" y="38" width="260" height="712" fill="#009688" opacity="0.04"/>

  <!-- Sidebar content -->
  <text x="20" y="75" font-family="Georgia, serif" font-size="20" font-weight="bold" fill="#004D40">🕊️ loven</text>
  <text x="20" y="92" font-family="Arial, sans-serif" font-size="11" fill="#78909C">WorldPeace-Lovdata-Kompendium</text>

  <line x1="15" y1="102" x2="245" y2="102" stroke="#B2DFDB" stroke-width="1"/>

  <text x="20" y="122" font-family="Arial, sans-serif" font-size="12" font-weight="bold" fill="#37474F">Search Settings</text>
  <text x="20" y="140" font-family="Arial, sans-serif" font-size="11" fill="#546E7A">Search query (Norwegian)</text>
  <rect x="20" y="146" width="220" height="28" rx="4" fill="white" stroke="#80CBC4" stroke-width="1.5"/>
  <text x="30" y="164" font-family="monospace" font-size="12" fill="#263238">energi</text>

  <text x="20" y="195" font-family="Arial, sans-serif" font-size="11" fill="#546E7A">Max results: 20</text>
  <rect x="20" y="200" width="220" height="6" rx="3" fill="#B2DFDB"/>
  <rect x="20" y="200" width="88" height="6" rx="3" fill="#009688"/>
  <circle cx="108" cy="203" r="7" fill="#009688"/>

  <line x1="15" y1="220" x2="245" y2="220" stroke="#B2DFDB" stroke-width="1"/>

  <text x="20" y="240" font-family="Arial, sans-serif" font-size="12" font-weight="bold" fill="#37474F">Peace-Theme Filter</text>
  <text x="20" y="258" font-family="Arial, sans-serif" font-size="11" fill="#546E7A">Active peace themes</text>

  <!-- Theme chips -->
  <rect x="20"  y="264" width="52" height="18" rx="9" fill="#009688"/>
  <text x="46"  y="276" font-family="Arial" font-size="10" fill="white" text-anchor="middle">energi</text>
  <rect x="78"  y="264" width="38" height="18" rx="9" fill="#009688"/>
  <text x="97"  y="276" font-family="Arial" font-size="10" fill="white" text-anchor="middle">vann</text>
  <rect x="122" y="264" width="42" height="18" rx="9" fill="#009688"/>
  <text x="143" y="276" font-family="Arial" font-size="10" fill="white" text-anchor="middle">miljø</text>
  <rect x="20"  y="286" width="40" height="18" rx="9" fill="#009688"/>
  <text x="40"  y="298" font-family="Arial" font-size="10" fill="white" text-anchor="middle">etikk</text>
  <rect x="66"  y="286" width="38" height="18" rx="9" fill="#009688"/>
  <text x="85"  y="298" font-family="Arial" font-size="10" fill="white" text-anchor="middle">klima</text>
  <rect x="110" y="286" width="42" height="18" rx="9" fill="#009688"/>
  <text x="131" y="298" font-family="Arial" font-size="10" fill="white" text-anchor="middle">bolig</text>

  <rect x="20" y="312" width="220" height="22" rx="4" fill="white" stroke="#E0E0E0" stroke-width="1"/>
  <rect x="22" y="314" width="12" height="12" rx="2" fill="white" stroke="#009688" stroke-width="1.5"/>
  <text x="40" y="326" font-family="Arial" font-size="11" fill="#37474F">Expand with synonyms (NLP)</text>

  <line x1="15" y1="344" x2="245" y2="344" stroke="#B2DFDB" stroke-width="1"/>
  <text x="20" y="362" font-family="Arial, sans-serif" font-size="12" font-weight="bold" fill="#37474F">Cache</text>
  <rect x="22" y="368" width="12" height="12" rx="2" fill="#009688" stroke="#009688" stroke-width="1.5"/>
  <text x="25" y="378" font-family="Arial" font-size="11" fill="white" font-weight="bold">✓</text>
  <text x="40" y="378" font-family="Arial" font-size="11" fill="#37474F">Enable disk cache</text>

  <!-- Main content area -->
  <!-- Header -->
  <text x="290" y="80" font-family="Georgia, serif" font-size="26" font-weight="bold" fill="#004D40">🕊️ Norwegian Peace-Law Explorer</text>
  <text x="290" y="102" font-family="Arial" font-size="13" fill="#546E7A">Query the Lovdata API for laws related to energy, water, climate, ethics, and other peace themes.</text>

  <!-- Metrics row -->
  <rect x="290" y="115" width="185" height="60" rx="6" fill="#E0F2F1"/>
  <text x="383" y="140" font-family="Arial" font-size="12" fill="#546E7A" text-anchor="middle">Results</text>
  <text x="383" y="162" font-family="Georgia" font-size="26" font-weight="bold" fill="#004D40" text-anchor="middle">24</text>

  <rect x="490" y="115" width="185" height="60" rx="6" fill="#E0F2F1"/>
  <text x="583" y="140" font-family="Arial" font-size="12" fill="#546E7A" text-anchor="middle">Max tema_treff</text>
  <text x="583" y="162" font-family="Georgia" font-size="26" font-weight="bold" fill="#004D40" text-anchor="middle">3</text>

  <rect x="690" y="115" width="185" height="60" rx="6" fill="#E0F2F1"/>
  <text x="783" y="140" font-family="Arial" font-size="12" fill="#546E7A" text-anchor="middle">Active themes</text>
  <text x="783" y="162" font-family="Georgia" font-size="26" font-weight="bold" fill="#004D40" text-anchor="middle">10</text>

  <!-- Tabs -->
  <rect x="290" y="188" width="880" height="2" fill="#E0E0E0"/>
  <text x="300" y="212" font-family="Arial" font-size="13" fill="#009688" font-weight="bold">📋 Table</text>
  <rect x="290" y="213" width="70" height="2" fill="#009688"/>
  <text x="390" y="212" font-family="Arial" font-size="13" fill="#90A4AE">📊 Charts</text>
  <text x="470" y="212" font-family="Arial" font-size="13" fill="#90A4AE">💾 Export</text>

  <!-- Table header -->
  <rect x="290" y="222" width="880" height="28" fill="#E0F2F1" rx="4"/>
  <text x="300" y="240" font-family="Arial" font-size="11" font-weight="bold" fill="#37474F">tittel</text>
  <text x="680" y="240" font-family="Arial" font-size="11" font-weight="bold" fill="#37474F">url</text>
  <text x="870" y="240" font-family="Arial" font-size="11" font-weight="bold" fill="#37474F">dato</text>
  <text x="980" y="240" font-family="Arial" font-size="11" font-weight="bold" fill="#37474F">tema_treff</text>
  <line x1="290" y1="250" x2="1170" y2="250" stroke="#B2DFDB" stroke-width="1"/>

  <!-- Table rows -->
  <text x="300" y="270" font-family="Arial" font-size="11" fill="#263238">Lov om energiproduksjon (energiloven)</text>
  <text x="680" y="270" font-family="Arial" font-size="11" fill="#1565C0">lovdata.no/lov/...</text>
  <text x="870" y="270" font-family="Arial" font-size="11" fill="#546E7A">2021-06-11</text>
  <text x="1010" y="270" font-family="Arial" font-size="11" fill="#009688" font-weight="bold">2</text>
  <line x1="290" y1="278" x2="1170" y2="278" stroke="#EEEEEE" stroke-width="1"/>

  <rect x="290" y="280" width="880" height="24" fill="#F9FBE7" opacity="0.5"/>
  <text x="300" y="296" font-family="Arial" font-size="11" fill="#263238">Lov om vassdrag og grunnvann (vannressursloven)</text>
  <text x="680" y="296" font-family="Arial" font-size="11" fill="#1565C0">lovdata.no/lov/...</text>
  <text x="870" y="296" font-family="Arial" font-size="11" fill="#546E7A">2000-11-24</text>
  <text x="1010" y="296" font-family="Arial" font-size="11" fill="#009688" font-weight="bold">2</text>
  <line x1="290" y1="304" x2="1170" y2="304" stroke="#EEEEEE" stroke-width="1"/>

  <text x="300" y="322" font-family="Arial" font-size="11" fill="#263238">Lov om klimakvoter (klimakvoteloven)</text>
  <text x="680" y="322" font-family="Arial" font-size="11" fill="#1565C0">lovdata.no/lov/...</text>
  <text x="870" y="322" font-family="Arial" font-size="11" fill="#546E7A">2004-12-17</text>
  <text x="1010" y="322" font-family="Arial" font-size="11" fill="#009688" font-weight="bold">2</text>
  <line x1="290" y1="330" x2="1170" y2="330" stroke="#EEEEEE" stroke-width="1"/>

  <rect x="290" y="332" width="880" height="24" fill="#F9FBE7" opacity="0.5"/>
  <text x="300" y="348" font-family="Arial" font-size="11" fill="#263238">Lov om vern mot forurensning og om avfall (forurensningsloven)</text>
  <text x="680" y="348" font-family="Arial" font-size="11" fill="#1565C0">lovdata.no/lov/...</text>
  <text x="870" y="348" font-family="Arial" font-size="11" fill="#546E7A">1981-03-13</text>
  <text x="1010" y="348" font-family="Arial" font-size="11" fill="#009688" font-weight="bold">1</text>
  <line x1="290" y1="356" x2="1170" y2="356" stroke="#EEEEEE" stroke-width="1"/>

  <text x="300" y="374" font-family="Arial" font-size="11" fill="#263238">Lov om Statens pensjonsfond (etikk og forvaltning)</text>
  <text x="680" y="374" font-family="Arial" font-size="11" fill="#1565C0">lovdata.no/lov/...</text>
  <text x="870" y="374" font-family="Arial" font-size="11" fill="#546E7A">2005-06-17</text>
  <text x="1010" y="374" font-family="Arial" font-size="11" fill="#009688" font-weight="bold">1</text>
  <line x1="290" y1="382" x2="1170" y2="382" stroke="#EEEEEE" stroke-width="1"/>

  <rect x="290" y="384" width="880" height="24" fill="#F9FBE7" opacity="0.5"/>
  <text x="300" y="400" font-family="Arial" font-size="11" fill="#263238">Lov om naturmangfold (naturmangfoldloven)</text>
  <text x="680" y="400" font-family="Arial" font-size="11" fill="#1565C0">lovdata.no/lov/...</text>
  <text x="870" y="400" font-family="Arial" font-size="11" fill="#546E7A">2009-06-19</text>
  <text x="1010" y="400" font-family="Arial" font-size="11" fill="#546E7A" font-weight="bold">1</text>
  <line x1="290" y1="408" x2="1170" y2="408" stroke="#EEEEEE" stroke-width="1"/>

  <!-- Pagination note -->
  <text x="290" y="435" font-family="Arial" font-size="11" fill="#90A4AE">Showing 1–24 of 24 results</text>

  <!-- Bottom bar -->
  <rect x="0" y="720" width="1200" height="30" fill="#F5F5F5"/>
  <text x="20" y="738" font-family="Arial" font-size="10" fill="#90A4AE">v1.0.0 · loven – WorldPeace-Lovdata-Kompendium · CC0 Public Domain</text>
</svg>
